<svg xmlns="http://www.w3.org/2000/svg" xmlns:xlink="http://www.w3.org/1999/xlink" viewBox="0,0,256,256" width="48px" height="48px" fill-rule="evenodd"><g fill="#fffff" fill-rule="evenodd" stroke="none" stroke-width="1" stroke-linecap="butt" stroke-linejoin="miter" stroke-miterlimit="10" stroke-dasharray="" stroke-dashoffset="0" font-family="none" font-weight="none" font-size="none" text-anchor="none" style="mix-blend-mode: normal"><g transform="scale(10.66667,10.66667)"><path d="M15.725,15.352l5.944,-1.371c0.313,-0.073 0.545,-0.336 0.577,-0.656l0.5,-5c0.021,-0.211 -0.048,-0.421 -0.19,-0.578c-0.142,-0.157 -0.344,-0.247 -0.556,-0.247h-4.5c-0.323,0 -0.609,0.207 -0.712,0.513l-0.329,0.987h-2.058l-0.777,-1.166c-0.139,-0.209 -0.373,-0.334 -0.624,-0.334h-4.5c-4.001,0 -7.25,3.249 -7.25,7.25c0,4.001 3.249,7.25 7.25,7.25c3.799,0 6.919,-2.928 7.225,-6.648zM8.5,11.5c-1.794,0 -3.25,1.456 -3.25,3.25c0,1.794 1.456,3.25 3.25,3.25c1.794,0 3.25,-1.456 3.25,-3.25c0,-1.794 -1.456,-3.25 -3.25,-3.25zM16.25,4.25v-1.5c0,-0.414 -0.336,-0.75 -0.75,-0.75c-0.414,0 -0.75,0.336 -0.75,0.75v1.5c0,0.414 0.336,0.75 0.75,0.75c0.414,0 0.75,-0.336 0.75,-0.75zM11.439,4.5l1.061,1.061c0.293,0.292 0.768,0.292 1.061,0c0.292,-0.293 0.292,-0.768 0,-1.061l-1.061,-1.061c-0.293,-0.292 -0.768,-0.292 -1.061,0c-0.292,0.293 -0.292,0.768 0,1.061zM18.5,5.561l1.061,-1.061c0.292,-0.293 0.292,-0.768 0,-1.061c-0.293,-0.292 -0.768,-0.292 -1.061,0l-1.061,1.061c-0.292,0.293 -0.292,0.768 0,1.061c0.293,0.292 0.768,0.292 1.061,0z"></path></g></g></svg>
