<svg xmlns="http://www.w3.org/2000/svg" xmlns:xlink="http://www.w3.org/1999/xlink" viewBox="0,0,256,256" width="58px" height="58px" fill-rule="nonzero"><g fill="none" fill-rule="nonzero" stroke="none" stroke-width="1" stroke-linecap="butt" stroke-linejoin="miter" stroke-miterlimit="10" stroke-dasharray="" stroke-dashoffset="0" font-family="none" font-weight="none" font-size="none" text-anchor="none" style="mix-blend-mode: normal"><g transform="scale(0.54701,0.54701)"><path d="M44.55,154.18h-32.558c-6.623,0 -11.992,-5.359 -11.992,-11.971c0,-6.612 5.369,-11.971 11.992,-11.971h32.558c6.623,0 11.992,5.36 11.992,11.971c0,6.611 -5.369,11.971 -11.992,11.971z" fill="#ffffff"></path><ellipse cx="122.267" cy="222.919" rx="13.472" ry="13.461" fill="#ffffff"></ellipse><path d="M76.307,233.997h-64.315c-6.623,0 -11.992,-5.36 -11.992,-11.971c0,-6.611 5.369,-11.971 11.992,-11.971h64.315c6.623,0 11.992,5.36 11.992,11.971c0,6.611 -5.369,11.971 -11.992,11.971z" fill="#ffffff"></path><path d="M399.078,105.546c35.301,61.081 14.352,139.185 -46.791,174.45c-61.143,35.265 -139.327,14.337 -174.628,-46.744c-35.301,-61.081 -14.352,-139.185 46.791,-174.45c61.143,-35.265 139.326,-14.337 174.628,46.744z" fill-opacity="0" fill="#ffffff"></path><path d="M207.638,233.252c-35.301,-61.081 -14.352,-139.185 46.791,-174.45c15.511,-8.946 32.119,-14.269 48.846,-16.245c-26.413,-3.119 -54.021,1.938 -78.826,16.245c-61.143,35.265 -82.092,113.369 -46.791,174.45c26.346,45.586 76.576,68.8 125.783,62.989c-38.695,-4.569 -74.823,-26.687 -95.803,-62.989z" fill-opacity="0" fill="#ffffff"></path><path d="M352.286,279.996c39.962,-23.048 62.748,-64.395 63.886,-107.329c0.458,-17.283 -25.571,-18.939 -26.904,-1.701c-0.033,0.429 -0.056,0.861 -0.069,1.295c-1.045,35.253 -19.89,66.808 -50.411,84.412c-12.597,7.265 -26.249,11.655 -40.576,13.047c-0.458,0.044 -0.912,0.1 -1.361,0.167c-17.167,2.538 -13.714,28.3 3.564,26.678c17.746,-1.666 35.425,-7.083 51.871,-16.569z" fill-opacity="0" fill="#ffffff"></path><path d="M457.71,357.726l-69.364,-91.532c24.52,-25.195 39.645,-59.549 39.645,-97.368c0,-77.1 -62.834,-139.826 -140.067,-139.826c-27.325,0 -52.842,7.859 -74.417,21.421h-201.515c-6.623,0 -11.992,5.36 -11.992,11.971c0,6.611 5.369,11.971 11.992,11.971h172.758c-14.475,15.743 -25.392,34.793 -31.464,55.874h-48.332c-6.623,0 -11.992,5.36 -11.992,11.971c0,6.611 5.369,11.971 11.992,11.971h43.671c-0.505,4.815 -0.767,9.7 -0.767,14.646c0,77.101 62.834,139.826 140.067,139.826c13.309,0 26.191,-1.864 38.397,-5.342l44.211,104.696c11.859,28.084 45.675,39.428 72.098,24.188c26.423,-15.238 33.496,-50.166 15.079,-74.467zM287.924,284.71c-64.008,0 -116.083,-51.985 -116.083,-115.884c0,-63.899 52.075,-115.883 116.083,-115.883c64.008,0 116.083,51.985 116.083,115.883c0,63.898 -52.075,115.884 -116.083,115.884z" fill="#ffffff"></path></g></g></svg>