<svg xmlns="http://www.w3.org/2000/svg" version="1.1" xmlns:xlink="http://www.w3.org/1999/xlink" xmlns:svgjs="http://svgjs.dev/svgjs" width="1000" height="141" viewBox="0 0 1000 141"><g transform="matrix(1,0,0,1,-0.6060606060606233,0.46554092206343967)"><svg viewBox="0 0 396 56" data-background-color="#ffffff" preserveAspectRatio="xMidYMid meet" height="141" width="1000" xmlns="http://www.w3.org/2000/svg" xmlns:xlink="http://www.w3.org/1999/xlink"><g id="tight-bounds" transform="matrix(1,0,0,1,0.2400000000000091,-0.1848956853585264)"><svg viewBox="0 0 395.52 56.36979137071707" height="56.36979137071707" width="395.52"><g><svg viewBox="0 0 654.998003073948 93.35078069759999" height="56.36979137071707" width="395.52"><g transform="matrix(1,0,0,1,259.478003073948,14.807171906543957)"><svg viewBox="0 0 395.52 63.736436884512074" height="63.736436884512074" width="395.52"><g><svg viewBox="0 0 395.52 63.736436884512074" height="63.736436884512074" width="395.52"><g><svg viewBox="0 0 395.52 63.736436884512074" height="63.736436884512074" width="395.52"><g transform="matrix(1,0,0,1,0,0)"><svg width="395.52" viewBox="2.85 -35.35 223.38 36" height="63.736436884512074" data-palette-color="#ffffff"><path d="M16.9 0.65Q10.15 0.65 6.5-3.98 2.85-8.6 2.85-17.3L2.85-17.3Q2.85-26 6.55-30.68 10.25-35.35 17.05-35.35L17.05-35.35Q19.6-35.35 21.93-34.68 24.25-34 25.65-32.8 27.05-31.6 27.05-30.2L27.05-30.2Q27.05-29.05 26.05-28.28 25.05-27.5 23.35-27.55L23.35-27.55Q23-30.4 21.35-31.9 19.7-33.4 17.15-33.4L17.15-33.4Q7.9-33.4 7.9-17.35L7.9-17.35Q7.9-1.3 17.1-1.3L17.1-1.3Q21.15-1.3 22.65-4.25 24.15-7.2 24.15-11.05L24.15-11.05Q24.15-16.95 20.6-17.9L20.6-17.9Q20.85-18.7 21.65-19.1 22.45-19.5 23.55-19.5L23.55-19.5Q25.85-19.5 27.35-17.68 28.85-15.85 28.85-12L28.85-12Q28.85-8.45 27.5-5.58 26.15-2.7 23.45-1.03 20.75 0.65 16.9 0.65L16.9 0.65ZM47.9 0.65Q41.25 0.65 37.82-3.85 34.4-8.35 34.4-17.35L34.4-17.35Q34.4-26.35 37.85-30.85 41.3-35.35 47.9-35.35L47.9-35.35Q54.5-35.35 57.95-30.85 61.4-26.35 61.4-17.35L61.4-17.35Q61.4-8.35 57.95-3.85 54.5 0.65 47.9 0.65L47.9 0.65ZM47.9-1.3Q52.15-1.3 54.25-5.2 56.35-9.1 56.35-17.35L56.35-17.35Q56.35-25.6 54.25-29.5 52.15-33.4 47.9-33.4L47.9-33.4Q43.7-33.4 41.57-29.5 39.45-25.6 39.45-17.35L39.45-17.35Q39.45-9.1 41.57-5.2 43.7-1.3 47.9-1.3L47.9-1.3ZM92.5-3Q93-1.35 93.8-0.5L93.8-0.5Q92.84 0.55 91.09 0.55L91.09 0.55Q90 0.55 89.22 0.08 88.45-0.4 88.25-1.25L88.25-1.25 85.4-10.85 72.65-10.85 70.34-2.9Q70.05-1.7 70.05-1.15L70.05-1.15Q70.05-0.3 70.4 0.1L70.4 0.1Q69.15 0.55 67.9 0.55L67.9 0.55Q66.55 0.55 65.92 0.08 65.3-0.4 65.3-1.45L65.3-1.45Q65.3-2.3 65.84-3.95L65.84-3.95 76.25-34.65Q78.05-35.35 80.05-35.35L80.05-35.35Q82.25-35.35 82.7-33.75L82.7-33.75 92.5-3ZM73.45-13.5L84.59-13.5 78.95-32.4 73.45-13.5ZM103.39-32.75L103.49-2.65Q106.64-2.7 110.12-3.15 113.59-3.6 116.34-4.3L116.34-4.3Q116.79-4.05 117.02-3.38 117.24-2.7 117.24-1.9L117.24-1.9Q117.24-1.1 116.97-0.55 116.69 0 116.14 0L116.14 0 101.54 0Q100.34 0 99.62-0.65 98.89-1.3 98.89-2.5L98.89-2.5 98.89-28.6Q98.89-32.1 98.19-34.2L98.19-34.2Q98.59-34.6 99.27-34.9 99.94-35.2 100.79-35.2L100.79-35.2Q101.99-35.2 102.69-34.55 103.39-33.9 103.39-32.75L103.39-32.75ZM138.54-32.75L138.64-2.65Q141.79-2.7 145.26-3.15 148.74-3.6 151.49-4.3L151.49-4.3Q151.94-4.05 152.16-3.38 152.39-2.7 152.39-1.9L152.39-1.9Q152.39-1.1 152.11-0.55 151.84 0 151.29 0L151.29 0 136.69 0Q135.49 0 134.76-0.65 134.04-1.3 134.04-2.5L134.04-2.5 134.04-28.6Q134.04-32.1 133.34-34.2L133.34-34.2Q133.74-34.6 134.41-34.9 135.09-35.2 135.94-35.2L135.94-35.2Q137.14-35.2 137.84-34.55 138.54-33.9 138.54-32.75L138.54-32.75ZM160.94 0.6Q159.74 0.6 159.01-0.08 158.28-0.75 158.28-1.9L158.28-1.9 158.28-28.6Q158.28-32.1 157.59-34.2L157.59-34.2Q157.99-34.6 158.66-34.9 159.34-35.2 160.19-35.2L160.19-35.2Q161.39-35.2 162.14-34.55 162.89-33.9 162.89-32.75L162.89-32.75 162.89-6Q162.89-2.3 163.59-0.45L163.59-0.45Q162.39 0.6 160.94 0.6L160.94 0.6ZM173.53 0.6Q172.43 0.6 171.58-0.1L171.58-0.1Q172.23-2 172.23-6L172.23-6 172.23-28.45Q172.23-32.45 171.88-34.55L171.88-34.55Q172.43-35.1 173.98-35.1L173.98-35.1Q175.03-35.1 175.28-34.85L175.28-34.85 178.88-29.7Q184.83-21.2 188.76-15.48 192.68-9.75 194.68-6.2L194.68-6.2 193.63-30.55Q193.53-32.3 193.96-33.48 194.38-34.65 195.33-35L195.33-35Q195.53-35.05 195.93-35.05L195.93-35.05Q196.68-35.05 197.33-34.75L197.33-34.75Q197.23-33.75 197.23-33L197.23-33 197.28-30.6 197.28-5.9Q197.28-4.15 197.33-2.63 197.38-1.1 197.53-0.1L197.53-0.1Q197.28 0.2 196.68 0.35 196.08 0.5 195.38 0.5L195.38 0.5Q194.73 0.5 194.33 0.35L194.33 0.35Q188.88-6.25 183.66-14 178.43-21.75 174.98-27.75L174.98-27.75 175.88-2.15Q175.93-0.95 175.21-0.18 174.48 0.6 173.53 0.6L173.53 0.6ZM225.33-4.1Q225.78-3.85 226-3.2 226.23-2.55 226.23-1.85L226.23-1.85Q226.23-1.05 225.93-0.53 225.63 0 225.08 0L225.08 0 209.23 0Q208.03 0 207.31-0.65 206.58-1.3 206.58-2.5L206.58-2.5 206.58-28.1Q206.58-31.45 205.88-33.5L205.88-33.5Q206.63-34.2 207.48-34.45 208.33-34.7 209.83-34.7L209.83-34.7 224.83-34.7Q225.63-34.7 225.63-33.4L225.63-33.4Q225.63-32.6 225.25-31.78 224.88-30.95 224.33-30.7L224.33-30.7Q217.83-32.1 211.08-32.25L211.08-32.25 211.13-19.5 223.08-19.5Q223.23-18.85 223.23-18.2L223.23-18.2Q223.23-17.45 223.08-16.85L223.08-16.85 211.13-16.85 211.18-2.4Q214.53-2.45 218.41-2.95 222.28-3.45 225.33-4.1L225.33-4.1Z" opacity="1" transform="matrix(1,0,0,1,0,0)" fill="#ffffff" class="undefined-text-0" data-fill-palette-color="primary" id="text-0"></path></svg></g></svg></g></svg></g></svg></g><g><svg viewBox="0 0 244.43135999999996 93.35078069759999" height="93.35078069759999" width="244.43135999999996"><g><svg xmlns="http://www.w3.org/2000/svg" xmlns:xlink="http://www.w3.org/1999/xlink" version="1.1" x="0" y="0" viewBox="0.08 31.717 100 38.191" enable-background="new 0 0 100 100" xml:space="preserve" width="244.43135999999996" height="93.35078069759999" class="icon-icon-0" data-fill-palette-color="accent" id="icon-0"><path d="M82.189 67.908l-0.001-34.691c0-0.829-0.671-1.5-1.5-1.5H19.47c-0.398 0-0.779 0.158-1.061 0.439s-0.439 0.663-0.439 1.061l0.001 34.691H0.08v2h100v-2H82.189zM22.789 37.597l0.557 7.946-2.375-0.238 0-9.528L22.789 37.597zM77.368 37.597l1.82-1.82 0 9.528-2.376 0.238L77.368 37.597zM74.693 54.354h-7.789l0.461-7.971h7.885L74.693 54.354zM76.759 46.302l2.43-0.243v9.606l-3.01-1.065L76.759 46.302zM75.303 45.633h-7.894l0.44-7.618h7.986L75.303 45.633zM66.657 45.633h-7.856l0.163-7.618h8.133L66.657 45.633zM66.614 46.383l-0.461 7.971h-7.539l0.171-7.971H66.614zM49.704 54.354h-7.41l-0.171-7.971h7.581V54.354zM50.454 46.383h7.581l-0.171 7.971h-7.41V46.383zM50.454 45.633v-7.618h7.76l-0.164 7.618H50.454zM49.704 45.633h-7.597l-0.164-7.618h7.76V45.633zM41.544 54.354h-7.539l-0.461-7.971h7.829L41.544 54.354zM41.357 45.633h-7.856l-0.44-7.618h8.133L41.357 45.633zM20.97 46.059l2.428 0.243 0.581 8.298-3.009 1.064V46.059zM24.908 46.383h7.885l0.461 7.971h-7.788L24.908 46.383zM32.75 45.633h-7.895l-0.533-7.618h7.987L32.75 45.633zM24.034 55.376l0.518 7.391-3.581 3.581 0-9.888L24.034 55.376zM33.297 55.104l0.417 7.202h-7.691l-0.504-7.202H33.297zM34.049 55.104h7.511l0.154 7.202h-7.249L34.049 55.104zM42.31 55.104h7.394v7.202h-7.24L42.31 55.104zM50.454 55.104h7.394l-0.154 7.202h-7.24V55.104zM58.598 55.104h7.511l-0.417 7.202h-7.249L58.598 55.104zM66.861 55.104h7.78l-0.504 7.202h-7.692L66.861 55.104zM76.125 55.376l3.064 1.084 0 9.888-3.582-3.581L76.125 55.376zM76.329 36.515h-8.057l0.823-1.798h9.032L76.329 36.515zM67.448 36.515h-8.246l0.497-1.798h8.572L67.448 36.515zM58.424 36.515h-7.97v-1.798h8.467L58.424 36.515zM49.704 34.717v1.798h-7.97l-0.497-1.798H49.704zM40.459 34.717l0.497 1.798H32.71l-0.823-1.798H40.459zM31.062 34.717l0.823 1.798h-8.058l-1.798-1.798H31.062zM21.531 67.908l4.103-4.103h48.892l4.104 4.103H21.531z" fill="#ffffff" data-fill-palette-color="accent"></path></svg></g></svg></g></svg></g><defs></defs></svg><rect width="395.52" height="56.36979137071707" fill="none" stroke="none" visibility="hidden"></rect></g></svg></g></svg>
