<svg xmlns="http://www.w3.org/2000/svg" xmlns:xlink="http://www.w3.org/1999/xlink" viewBox="0,0,256,256" width="64px" height="64px" fill-rule="nonzero"><g fill="#ffffff" fill-rule="nonzero" stroke="none" stroke-width="1" stroke-linecap="butt" stroke-linejoin="miter" stroke-miterlimit="10" stroke-dasharray="" stroke-dashoffset="0" font-family="none" font-weight="none" font-size="none" text-anchor="none" style="mix-blend-mode: normal"><g transform="scale(0.5,0.5)"><path d="M108.17578,1.12695c-19.673,0 -35.68164,16.00669 -35.68164,35.67969v5.09961h-61.16992c-5.633,0 -10.19336,4.56231 -10.19336,10.19531v448.57813c0,5.628 4.56036,10.18945 10.19336,10.18945h489.35351c5.633,0 10.19336,-4.56245 10.19336,-10.18945v-448.57813c-0.001,-5.633 -4.56231,-10.19531 -10.19531,-10.19531h-61.16406v-5.09961c0,-19.673 -16.0095,-35.67969 -35.6875,-35.67969c-19.673,0 -35.67969,16.00669 -35.67969,35.67969v5.09961h-224.28515v-5.09961c0,-19.673 -16.0056,-35.67969 -35.6836,-35.67969zM108.17578,21.51758c8.432,0 15.29492,6.85706 15.29492,15.28906v30.58594c0,8.432 -6.86292,15.29492 -15.29492,15.29492c-8.432,0 -15.29101,-6.86292 -15.29101,-15.29492v-30.58594c0,-8.432 6.85902,-15.28906 15.29101,-15.28906zM403.82422,21.51758c8.432,0 15.29492,6.85706 15.29492,15.28906v30.58594c0,8.432 -6.86292,15.29492 -15.29492,15.29492c-8.432,0 -15.28906,-6.86292 -15.28906,-15.29492v-30.58594c0,-8.432 6.85706,-15.28906 15.28906,-15.28906zM21.51953,62.29688h50.97461v5.0957c0,19.678 16.00864,35.68359 35.68164,35.68359c19.678,0 35.6836,-16.00559 35.6836,-35.68359v-5.0957h224.2871v5.0957c0,15.375 9.76588,28.50267 23.42188,33.51367c7.884,2.898 16.65967,2.889 24.51367,0c13.656,-5.01 23.42969,-18.13867 23.42969,-33.51367v-5.0957h50.9707v61.16993h-468.96289zM21.51953,143.85742h468.96094v346.62305h-468.96094zM52.10352,164.24805c-5.633,0 -10.19531,4.56231 -10.19531,10.19531v285.45703c0.001,5.626 4.56331,10.18945 10.19531,10.18945h407.79687c5.628,0 10.18945,-4.56345 10.18945,-10.18945v-285.45703c0,-5.633 -4.56245,-10.19531 -10.18945,-10.19531zM62.30078,184.63672h61.16992v50.97461h-61.16992zM143.85938,184.63672h61.16601v50.97461h-61.16601zM225.41406,184.63672h61.17188v50.97461h-61.17188zM306.97461,184.63672h61.17187v50.97461h-61.17187zM388.53516,184.63672h61.16992v50.97461h-61.16992zM62.30078,255.99609h61.16992v50.98243h-61.16992zM143.85938,255.99609h61.16601v50.98243h-61.16601zM225.41406,255.99609h61.17188v50.98243h-61.17188zM306.97461,255.99609h61.17187v50.98243h-61.17187zM388.53516,255.99609h61.16992v50.98243h-61.16992zM62.30078,327.36914h61.16992v50.9707h-61.16992zM143.85938,327.36914h61.16601v50.9707h-61.16601zM225.41406,327.36914h61.17188v50.9707h-61.17188zM306.97461,327.36914h61.17187v50.9707h-61.17187zM388.53516,327.36914h61.16992v50.9707h-61.16992zM62.30078,398.72852h61.16992v50.9707h-61.16992zM143.85938,398.72852h61.16601v50.9707h-61.16601zM225.41406,398.72852h61.17188v50.9707h-61.17188zM306.97461,398.72852h61.17187v50.9707h-61.17187zM388.53516,398.72852h61.16992v50.9707h-61.16992z"></path></g></g></svg>